<svg class="rich-terminal" viewBox="0 0 1238 782.0" xmlns="http://www.w3.org/2000/svg">
    <!-- Generated with Rich https://www.textualize.io -->
    <style>

    @font-face {
        font-family: "Fira Code";
        src: local("FiraCode-Regular"),
                url("https://cdnjs.cloudflare.com/ajax/libs/firacode/6.2.0/woff2/FiraCode-Regular.woff2") format("woff2"),
                url("https://cdnjs.cloudflare.com/ajax/libs/firacode/6.2.0/woff/FiraCode-Regular.woff") format("woff");
        font-style: normal;
        font-weight: 400;
    }
    @font-face {
        font-family: "Fira Code";
        src: local("FiraCode-Bold"),
                url("https://cdnjs.cloudflare.com/ajax/libs/firacode/6.2.0/woff2/FiraCode-Bold.woff2") format("woff2"),
                url("https://cdnjs.cloudflare.com/ajax/libs/firacode/6.2.0/woff/FiraCode-Bold.woff") format("woff");
        font-style: bold;
        font-weight: 700;
    }

    .terminal-2053868193-matrix {
        font-family: Fira Code, monospace;
        font-size: 20px;
        line-height: 24.4px;
        font-variant-east-asian: full-width;
    }

    .terminal-2053868193-title {
        font-size: 18px;
        font-weight: bold;
        font-family: arial;
    }

    .terminal-2053868193-r1 { fill: #e0e0e0 }
.terminal-2053868193-r2 { fill: #646464 }
.terminal-2053868193-r3 { fill: #c5c8c6 }
.terminal-2053868193-r4 { fill: #646464;font-weight: bold }
.terminal-2053868193-r5 { fill: #0178d4 }
.terminal-2053868193-r6 { fill: #6db2ff }
.terminal-2053868193-r7 { fill: #0c7dd4;font-weight: bold }
.terminal-2053868193-r8 { fill: #004295 }
.terminal-2053868193-r9 { fill: #365270 }
.terminal-2053868193-r10 { fill: #1c1c1c }
.terminal-2053868193-r11 { fill: #133621 }
.terminal-2053868193-r12 { fill: #63696e;font-weight: bold }
.terminal-2053868193-r13 { fill: #24422e;font-weight: bold }
.terminal-2053868193-r14 { fill: #0a2546 }
.terminal-2053868193-r15 { fill: #101010 }
.terminal-2053868193-r16 { fill: #2e4e37 }
    </style>

    <defs>
    <clipPath id="terminal-2053868193-clip-terminal">
      <rect x="0" y="0" width="1219.0" height="731.0" />
    </clipPath>
    <clipPath id="terminal-2053868193-line-0">
    <rect x="0" y="1.5" width="1220" height="24.65"/>
            </clipPath>
<clipPath id="terminal-2053868193-line-1">
    <rect x="0" y="25.9" width="1220" height="24.65"/>
            </clipPath>
<clipPath id="terminal-2053868193-line-2">
    <rect x="0" y="50.3" width="1220" height="24.65"/>
            </clipPath>
<clipPath id="terminal-2053868193-line-3">
    <rect x="0" y="74.7" width="1220" height="24.65"/>
            </clipPath>
<clipPath id="terminal-2053868193-line-4">
    <rect x="0" y="99.1" width="1220" height="24.65"/>
            </clipPath>
<clipPath id="terminal-2053868193-line-5">
    <rect x="0" y="123.5" width="1220" height="24.65"/>
            </clipPath>
<clipPath id="terminal-2053868193-line-6">
    <rect x="0" y="147.9" width="1220" height="24.65"/>
            </clipPath>
<clipPath id="terminal-2053868193-line-7">
    <rect x="0" y="172.3" width="1220" height="24.65"/>
            </clipPath>
<clipPath id="terminal-2053868193-line-8">
    <rect x="0" y="196.7" width="1220" height="24.65"/>
            </clipPath>
<clipPath id="terminal-2053868193-line-9">
    <rect x="0" y="221.1" width="1220" height="24.65"/>
            </clipPath>
<clipPath id="terminal-2053868193-line-10">
    <rect x="0" y="245.5" width="1220" height="24.65"/>
            </clipPath>
<clipPath id="terminal-2053868193-line-11">
    <rect x="0" y="269.9" width="1220" height="24.65"/>
            </clipPath>
<clipPath id="terminal-2053868193-line-12">
    <rect x="0" y="294.3" width="1220" height="24.65"/>
            </clipPath>
<clipPath id="terminal-2053868193-line-13">
    <rect x="0" y="318.7" width="1220" height="24.65"/>
            </clipPath>
<clipPath id="terminal-2053868193-line-14">
    <rect x="0" y="343.1" width="1220" height="24.65"/>
            </clipPath>
<clipPath id="terminal-2053868193-line-15">
    <rect x="0" y="367.5" width="1220" height="24.65"/>
            </clipPath>
<clipPath id="terminal-2053868193-line-16">
    <rect x="0" y="391.9" width="1220" height="24.65"/>
            </clipPath>
<clipPath id="terminal-2053868193-line-17">
    <rect x="0" y="416.3" width="1220" height="24.65"/>
            </clipPath>
<clipPath id="terminal-2053868193-line-18">
    <rect x="0" y="440.7" width="1220" height="24.65"/>
            </clipPath>
<clipPath id="terminal-2053868193-line-19">
    <rect x="0" y="465.1" width="1220" height="24.65"/>
            </clipPath>
<clipPath id="terminal-2053868193-line-20">
    <rect x="0" y="489.5" width="1220" height="24.65"/>
            </clipPath>
<clipPath id="terminal-2053868193-line-21">
    <rect x="0" y="513.9" width="1220" height="24.65"/>
            </clipPath>
<clipPath id="terminal-2053868193-line-22">
    <rect x="0" y="538.3" width="1220" height="24.65"/>
            </clipPath>
<clipPath id="terminal-2053868193-line-23">
    <rect x="0" y="562.7" width="1220" height="24.65"/>
            </clipPath>
<clipPath id="terminal-2053868193-line-24">
    <rect x="0" y="587.1" width="1220" height="24.65"/>
            </clipPath>
<clipPath id="terminal-2053868193-line-25">
    <rect x="0" y="611.5" width="1220" height="24.65"/>
            </clipPath>
<clipPath id="terminal-2053868193-line-26">
    <rect x="0" y="635.9" width="1220" height="24.65"/>
            </clipPath>
<clipPath id="terminal-2053868193-line-27">
    <rect x="0" y="660.3" width="1220" height="24.65"/>
            </clipPath>
<clipPath id="terminal-2053868193-line-28">
    <rect x="0" y="684.7" width="1220" height="24.65"/>
            </clipPath>
    </defs>

    <rect fill="#292929" stroke="rgba(255,255,255,0.35)" stroke-width="1" x="1" y="1" width="1236" height="780" rx="8"/><text class="terminal-2053868193-title" fill="#c5c8c6" text-anchor="middle" x="618" y="27">Amenity&#160;v0.1.2&#160;—&#160;tmpuus8353k_amenity_demo</text>
            <g transform="translate(26,22)">
            <circle cx="0" cy="0" r="7" fill="#ff5f57"/>
            <circle cx="22" cy="0" r="7" fill="#febc2e"/>
            <circle cx="44" cy="0" r="7" fill="#28c840"/>
            </g>
        
    <g transform="translate(9, 41)" clip-path="url(#terminal-2053868193-clip-terminal)">
    <rect fill="#191d21" x="0" y="1.5" width="12.2" height="24.65" shape-rendering="crispEdges"/><rect fill="#191d21" x="12.2" y="1.5" width="12.2" height="24.65" shape-rendering="crispEdges"/><rect fill="#191d21" x="24.4" y="1.5" width="61" height="24.65" shape-rendering="crispEdges"/><rect fill="#191d21" x="85.4" y="1.5" width="12.2" height="24.65" shape-rendering="crispEdges"/><rect fill="#191d21" x="97.6" y="1.5" width="244" height="24.65" shape-rendering="crispEdges"/><rect fill="#191d21" x="341.6" y="1.5" width="500.2" height="24.65" shape-rendering="crispEdges"/><rect fill="#191d21" x="841.8" y="1.5" width="256.2" height="24.65" shape-rendering="crispEdges"/><rect fill="#191d21" x="1098" y="1.5" width="12.2" height="24.65" shape-rendering="crispEdges"/><rect fill="#191d21" x="1110.2" y="1.5" width="0" height="24.65" shape-rendering="crispEdges"/><rect fill="#191d21" x="1110.2" y="1.5" width="97.6" height="24.65" shape-rendering="crispEdges"/><rect fill="#191d21" x="1207.8" y="1.5" width="12.2" height="24.65" shape-rendering="crispEdges"/><rect fill="#191d21" x="0" y="25.9" width="61" height="24.65" shape-rendering="crispEdges"/><rect fill="#191d21" x="61" y="25.9" width="170.8" height="24.65" shape-rendering="crispEdges"/><rect fill="#191d21" x="231.8" y="25.9" width="73.2" height="24.65" shape-rendering="crispEdges"/><rect fill="#191d21" x="305" y="25.9" width="915" height="24.65" shape-rendering="crispEdges"/><rect fill="#161616" x="0" y="50.3" width="1220" height="24.65" shape-rendering="crispEdges"/><rect fill="#161616" x="0" y="74.7" width="1220" height="24.65" shape-rendering="crispEdges"/><rect fill="#161616" x="0" y="99.1" width="244" height="24.65" shape-rendering="crispEdges"/><rect fill="#1e1e1e" x="244" y="99.1" width="12.2" height="24.65" shape-rendering="crispEdges"/><rect fill="#1e1e1e" x="256.2" y="99.1" width="707.6" height="24.65" shape-rendering="crispEdges"/><rect fill="#1e1e1e" x="963.8" y="99.1" width="12.2" height="24.65" shape-rendering="crispEdges"/><rect fill="#161616" x="976" y="99.1" width="244" height="24.65" shape-rendering="crispEdges"/><rect fill="#161616" x="0" y="123.5" width="244" height="24.65" shape-rendering="crispEdges"/><rect fill="#1e1e1e" x="244" y="123.5" width="12.2" height="24.65" shape-rendering="crispEdges"/><rect fill="#1e1e1e" x="256.2" y="123.5" width="707.6" height="24.65" shape-rendering="crispEdges"/><rect fill="#1e1e1e" x="963.8" y="123.5" width="12.2" height="24.65" shape-rendering="crispEdges"/><rect fill="#161616" x="976" y="123.5" width="244" height="24.65" shape-rendering="crispEdges"/><rect fill="#161616" x="0" y="147.9" width="244" height="24.65" shape-rendering="crispEdges"/><rect fill="#1e1e1e" x="244" y="147.9" width="12.2" height="24.65" shape-rendering="crispEdges"/><rect fill="#1e1e1e" x="256.2" y="147.9" width="24.4" height="24.65" shape-rendering="crispEdges"/><rect fill="#1e1e1e" x="280.6" y="147.9" width="85.4" height="24.65" shape-rendering="crispEdges"/><rect fill="#1e1e1e" x="366" y="147.9" width="573.4" height="24.65" shape-rendering="crispEdges"/><rect fill="#1e1e1e" x="939.4" y="147.9" width="24.4" height="24.65" shape-rendering="crispEdges"/><rect fill="#1e1e1e" x="963.8" y="147.9" width="12.2" height="24.65" shape-rendering="crispEdges"/><rect fill="#161616" x="976" y="147.9" width="244" height="24.65" shape-rendering="crispEdges"/><rect fill="#161616" x="0" y="172.3" width="244" height="24.65" shape-rendering="crispEdges"/><rect fill="#1e1e1e" x="244" y="172.3" width="12.2" height="24.65" shape-rendering="crispEdges"/><rect fill="#1e1e1e" x="256.2" y="172.3" width="24.4" height="24.65" shape-rendering="crispEdges"/><rect fill="#1e1e1e" x="280.6" y="172.3" width="207.4" height="24.65" shape-rendering="crispEdges"/><rect fill="#1e1e1e" x="488" y="172.3" width="451.4" height="24.65" shape-rendering="crispEdges"/><rect fill="#1e1e1e" x="939.4" y="172.3" width="24.4" height="24.65" shape-rendering="crispEdges"/><rect fill="#1e1e1e" x="963.8" y="172.3" width="12.2" height="24.65" shape-rendering="crispEdges"/><rect fill="#161616" x="976" y="172.3" width="244" height="24.65" shape-rendering="crispEdges"/><rect fill="#161616" x="0" y="196.7" width="244" height="24.65" shape-rendering="crispEdges"/><rect fill="#1e1e1e" x="244" y="196.7" width="12.2" height="24.65" shape-rendering="crispEdges"/><rect fill="#1e1e1e" x="256.2" y="196.7" width="24.4" height="24.65" shape-rendering="crispEdges"/><rect fill="#1e1e1e" x="280.6" y="196.7" width="183" height="24.65" shape-rendering="crispEdges"/><rect fill="#1e1e1e" x="463.6" y="196.7" width="475.8" height="24.65" shape-rendering="crispEdges"/><rect fill="#1e1e1e" x="939.4" y="196.7" width="24.4" height="24.65" shape-rendering="crispEdges"/><rect fill="#1e1e1e" x="963.8" y="196.7" width="12.2" height="24.65" shape-rendering="crispEdges"/><rect fill="#161616" x="976" y="196.7" width="244" height="24.65" shape-rendering="crispEdges"/><rect fill="#161616" x="0" y="221.1" width="244" height="24.65" shape-rendering="crispEdges"/><rect fill="#1e1e1e" x="244" y="221.1" width="12.2" height="24.65" shape-rendering="crispEdges"/><rect fill="#1e1e1e" x="256.2" y="221.1" width="24.4" height="24.65" shape-rendering="crispEdges"/><rect fill="#1e1e1e" x="280.6" y="221.1" width="170.8" height="24.65" shape-rendering="crispEdges"/><rect fill="#1e1e1e" x="451.4" y="221.1" width="488" height="24.65" shape-rendering="crispEdges"/><rect fill="#1e1e1e" x="939.4" y="221.1" width="24.4" height="24.65" shape-rendering="crispEdges"/><rect fill="#1e1e1e" x="963.8" y="221.1" width="12.2" height="24.65" shape-rendering="crispEdges"/><rect fill="#161616" x="976" y="221.1" width="244" height="24.65" shape-rendering="crispEdges"/><rect fill="#161616" x="0" y="245.5" width="244" height="24.65" shape-rendering="crispEdges"/><rect fill="#1e1e1e" x="244" y="245.5" width="12.2" height="24.65" shape-rendering="crispEdges"/><rect fill="#1e1e1e" x="256.2" y="245.5" width="24.4" height="24.65" shape-rendering="crispEdges"/><rect fill="#1e1e1e" x="280.6" y="245.5" width="170.8" height="24.65" shape-rendering="crispEdges"/><rect fill="#1e1e1e" x="451.4" y="245.5" width="488" height="24.65" shape-rendering="crispEdges"/><rect fill="#1e1e1e" x="939.4" y="245.5" width="24.4" height="24.65" shape-rendering="crispEdges"/><rect fill="#1e1e1e" x="963.8" y="245.5" width="12.2" height="24.65" shape-rendering="crispEdges"/><rect fill="#161616" x="976" y="245.5" width="244" height="24.65" shape-rendering="crispEdges"/><rect fill="#161616" x="0" y="269.9" width="244" height="24.65" shape-rendering="crispEdges"/><rect fill="#1e1e1e" x="244" y="269.9" width="12.2" height="24.65" shape-rendering="crispEdges"/><rect fill="#1e1e1e" x="256.2" y="269.9" width="24.4" height="24.65" shape-rendering="crispEdges"/><rect fill="#1e1e1e" x="280.6" y="269.9" width="170.8" height="24.65" shape-rendering="crispEdges"/><rect fill="#1e1e1e" x="451.4" y="269.9" width="488" height="24.65" shape-rendering="crispEdges"/><rect fill="#1e1e1e" x="939.4" y="269.9" width="24.4" height="24.65" shape-rendering="crispEdges"/><rect fill="#1e1e1e" x="963.8" y="269.9" width="12.2" height="24.65" shape-rendering="crispEdges"/><rect fill="#161616" x="976" y="269.9" width="244" height="24.65" shape-rendering="crispEdges"/><rect fill="#161616" x="0" y="294.3" width="244" height="24.65" shape-rendering="crispEdges"/><rect fill="#1e1e1e" x="244" y="294.3" width="12.2" height="24.65" shape-rendering="crispEdges"/><rect fill="#1e1e1e" x="256.2" y="294.3" width="24.4" height="24.65" shape-rendering="crispEdges"/><rect fill="#1e1e1e" x="280.6" y="294.3" width="183" height="24.65" shape-rendering="crispEdges"/><rect fill="#1e1e1e" x="463.6" y="294.3" width="475.8" height="24.65" shape-rendering="crispEdges"/><rect fill="#1e1e1e" x="939.4" y="294.3" width="24.4" height="24.65" shape-rendering="crispEdges"/><rect fill="#1e1e1e" x="963.8" y="294.3" width="12.2" height="24.65" shape-rendering="crispEdges"/><rect fill="#161616" x="976" y="294.3" width="244" height="24.65" shape-rendering="crispEdges"/><rect fill="#161616" x="0" y="318.7" width="244" height="24.65" shape-rendering="crispEdges"/><rect fill="#1e1e1e" x="244" y="318.7" width="12.2" height="24.65" shape-rendering="crispEdges"/><rect fill="#1e1e1e" x="256.2" y="318.7" width="24.4" height="24.65" shape-rendering="crispEdges"/><rect fill="#1e1e1e" x="280.6" y="318.7" width="183" height="24.65" shape-rendering="crispEdges"/><rect fill="#1e1e1e" x="463.6" y="318.7" width="475.8" height="24.65" shape-rendering="crispEdges"/><rect fill="#1e1e1e" x="939.4" y="318.7" width="24.4" height="24.65" shape-rendering="crispEdges"/><rect fill="#1e1e1e" x="963.8" y="318.7" width="12.2" height="24.65" shape-rendering="crispEdges"/><rect fill="#161616" x="976" y="318.7" width="244" height="24.65" shape-rendering="crispEdges"/><rect fill="#161616" x="0" y="343.1" width="244" height="24.65" shape-rendering="crispEdges"/><rect fill="#1e1e1e" x="244" y="343.1" width="12.2" height="24.65" shape-rendering="crispEdges"/><rect fill="#1e1e1e" x="256.2" y="343.1" width="24.4" height="24.65" shape-rendering="crispEdges"/><rect fill="#1e1e1e" x="280.6" y="343.1" width="170.8" height="24.65" shape-rendering="crispEdges"/><rect fill="#1e1e1e" x="451.4" y="343.1" width="488" height="24.65" shape-rendering="crispEdges"/><rect fill="#1e1e1e" x="939.4" y="343.1" width="24.4" height="24.65" shape-rendering="crispEdges"/><rect fill="#1e1e1e" x="963.8" y="343.1" width="12.2" height="24.65" shape-rendering="crispEdges"/><rect fill="#161616" x="976" y="343.1" width="244" height="24.65" shape-rendering="crispEdges"/><rect fill="#161616" x="0" y="367.5" width="244" height="24.65" shape-rendering="crispEdges"/><rect fill="#1e1e1e" x="244" y="367.5" width="12.2" height="24.65" shape-rendering="crispEdges"/><rect fill="#1e1e1e" x="256.2" y="367.5" width="24.4" height="24.65" shape-rendering="crispEdges"/><rect fill="#1e1e1e" x="280.6" y="367.5" width="183" height="24.65" shape-rendering="crispEdges"/><rect fill="#1e1e1e" x="463.6" y="367.5" width="475.8" height="24.65" shape-rendering="crispEdges"/><rect fill="#1e1e1e" x="939.4" y="367.5" width="24.4" height="24.65" shape-rendering="crispEdges"/><rect fill="#1e1e1e" x="963.8" y="367.5" width="12.2" height="24.65" shape-rendering="crispEdges"/><rect fill="#161616" x="976" y="367.5" width="244" height="24.65" shape-rendering="crispEdges"/><rect fill="#161616" x="0" y="391.9" width="244" height="24.65" shape-rendering="crispEdges"/><rect fill="#1e1e1e" x="244" y="391.9" width="12.2" height="24.65" shape-rendering="crispEdges"/><rect fill="#1e1e1e" x="256.2" y="391.9" width="24.4" height="24.65" shape-rendering="crispEdges"/><rect fill="#1e1e1e" x="280.6" y="391.9" width="183" height="24.65" shape-rendering="crispEdges"/><rect fill="#1e1e1e" x="463.6" y="391.9" width="475.8" height="24.65" shape-rendering="crispEdges"/><rect fill="#1e1e1e" x="939.4" y="391.9" width="24.4" height="24.65" shape-rendering="crispEdges"/><rect fill="#1e1e1e" x="963.8" y="391.9" width="12.2" height="24.65" shape-rendering="crispEdges"/><rect fill="#161616" x="976" y="391.9" width="244" height="24.65" shape-rendering="crispEdges"/><rect fill="#161616" x="0" y="416.3" width="244" height="24.65" shape-rendering="crispEdges"/><rect fill="#1e1e1e" x="244" y="416.3" width="12.2" height="24.65" shape-rendering="crispEdges"/><rect fill="#1e1e1e" x="256.2" y="416.3" width="24.4" height="24.65" shape-rendering="crispEdges"/><rect fill="#1e1e1e" x="280.6" y="416.3" width="170.8" height="24.65" shape-rendering="crispEdges"/><rect fill="#1e1e1e" x="451.4" y="416.3" width="488" height="24.65" shape-rendering="crispEdges"/><rect fill="#1e1e1e" x="939.4" y="416.3" width="24.4" height="24.65" shape-rendering="crispEdges"/><rect fill="#1e1e1e" x="963.8" y="416.3" width="12.2" height="24.65" shape-rendering="crispEdges"/><rect fill="#161616" x="976" y="416.3" width="244" height="24.65" shape-rendering="crispEdges"/><rect fill="#161616" x="0" y="440.7" width="244" height="24.65" shape-rendering="crispEdges"/><rect fill="#1e1e1e" x="244" y="440.7" width="12.2" height="24.65" shape-rendering="crispEdges"/><rect fill="#1e1e1e" x="256.2" y="440.7" width="24.4" height="24.65" shape-rendering="crispEdges"/><rect fill="#1e1e1e" x="280.6" y="440.7" width="170.8" height="24.65" shape-rendering="crispEdges"/><rect fill="#1e1e1e" x="451.4" y="440.7" width="488" height="24.65" shape-rendering="crispEdges"/><rect fill="#1e1e1e" x="939.4" y="440.7" width="24.4" height="24.65" shape-rendering="crispEdges"/><rect fill="#1e1e1e" x="963.8" y="440.7" width="12.2" height="24.65" shape-rendering="crispEdges"/><rect fill="#161616" x="976" y="440.7" width="244" height="24.65" shape-rendering="crispEdges"/><rect fill="#161616" x="0" y="465.1" width="244" height="24.65" shape-rendering="crispEdges"/><rect fill="#1e1e1e" x="244" y="465.1" width="12.2" height="24.65" shape-rendering="crispEdges"/><rect fill="#1e1e1e" x="256.2" y="465.1" width="24.4" height="24.65" shape-rendering="crispEdges"/><rect fill="#1e1e1e" x="280.6" y="465.1" width="658.8" height="24.65" shape-rendering="crispEdges"/><rect fill="#1e1e1e" x="939.4" y="465.1" width="24.4" height="24.65" shape-rendering="crispEdges"/><rect fill="#1e1e1e" x="963.8" y="465.1" width="12.2" height="24.65" shape-rendering="crispEdges"/><rect fill="#161616" x="976" y="465.1" width="244" height="24.65" shape-rendering="crispEdges"/><rect fill="#161616" x="0" y="489.5" width="244" height="24.65" shape-rendering="crispEdges"/><rect fill="#1e1e1e" x="244" y="489.5" width="12.2" height="24.65" shape-rendering="crispEdges"/><rect fill="#1e1e1e" x="256.2" y="489.5" width="24.4" height="24.65" shape-rendering="crispEdges"/><rect fill="#0c7dd4" x="280.6" y="489.5" width="658.8" height="24.65" shape-rendering="crispEdges"/><rect fill="#1e1e1e" x="939.4" y="489.5" width="24.4" height="24.65" shape-rendering="crispEdges"/><rect fill="#1e1e1e" x="963.8" y="489.5" width="12.2" height="24.65" shape-rendering="crispEdges"/><rect fill="#161616" x="976" y="489.5" width="244" height="24.65" shape-rendering="crispEdges"/><rect fill="#161616" x="0" y="513.9" width="244" height="24.65" shape-rendering="crispEdges"/><rect fill="#1e1e1e" x="244" y="513.9" width="12.2" height="24.65" shape-rendering="crispEdges"/><rect fill="#1e1e1e" x="256.2" y="513.9" width="24.4" height="24.65" shape-rendering="crispEdges"/><rect fill="#0c7dd4" x="280.6" y="513.9" width="305" height="24.65" shape-rendering="crispEdges"/><rect fill="#dfeef9" x="585.6" y="513.9" width="48.8" height="24.65" shape-rendering="crispEdges"/><rect fill="#0c7dd4" x="634.4" y="513.9" width="305" height="24.65" shape-rendering="crispEdges"/><rect fill="#1e1e1e" x="939.4" y="513.9" width="24.4" height="24.65" shape-rendering="crispEdges"/><rect fill="#1e1e1e" x="963.8" y="513.9" width="12.2" height="24.65" shape-rendering="crispEdges"/><rect fill="#161616" x="976" y="513.9" width="244" height="24.65" shape-rendering="crispEdges"/><rect fill="#161616" x="0" y="538.3" width="244" height="24.65" shape-rendering="crispEdges"/><rect fill="#1e1e1e" x="244" y="538.3" width="12.2" height="24.65" shape-rendering="crispEdges"/><rect fill="#1e1e1e" x="256.2" y="538.3" width="24.4" height="24.65" shape-rendering="crispEdges"/><rect fill="#0c7dd4" x="280.6" y="538.3" width="658.8" height="24.65" shape-rendering="crispEdges"/><rect fill="#1e1e1e" x="939.4" y="538.3" width="24.4" height="24.65" shape-rendering="crispEdges"/><rect fill="#1e1e1e" x="963.8" y="538.3" width="12.2" height="24.65" shape-rendering="crispEdges"/><rect fill="#161616" x="976" y="538.3" width="244" height="24.65" shape-rendering="crispEdges"/><rect fill="#161616" x="0" y="562.7" width="244" height="24.65" shape-rendering="crispEdges"/><rect fill="#1e1e1e" x="244" y="562.7" width="12.2" height="24.65" shape-rendering="crispEdges"/><rect fill="#1e1e1e" x="256.2" y="562.7" width="707.6" height="24.65" shape-rendering="crispEdges"/><rect fill="#1e1e1e" x="963.8" y="562.7" width="12.2" height="24.65" shape-rendering="crispEdges"/><rect fill="#161616" x="976" y="562.7" width="244" height="24.65" shape-rendering="crispEdges"/><rect fill="#161616" x="0" y="587.1" width="244" height="24.65" shape-rendering="crispEdges"/><rect fill="#1e1e1e" x="244" y="587.1" width="12.2" height="24.65" shape-rendering="crispEdges"/><rect fill="#1e1e1e" x="256.2" y="587.1" width="707.6" height="24.65" shape-rendering="crispEdges"/><rect fill="#1e1e1e" x="963.8" y="587.1" width="12.2" height="24.65" shape-rendering="crispEdges"/><rect fill="#161616" x="976" y="587.1" width="244" height="24.65" shape-rendering="crispEdges"/><rect fill="#161616" x="0" y="611.5" width="1220" height="24.65" shape-rendering="crispEdges"/><rect fill="#161616" x="0" y="635.9" width="1220" height="24.65" shape-rendering="crispEdges"/><rect fill="#121212" x="0" y="660.3" width="12.2" height="24.65" shape-rendering="crispEdges"/><rect fill="#0b3a5f" x="12.2" y="660.3" width="146.4" height="24.65" shape-rendering="crispEdges"/><rect fill="#121212" x="158.6" y="660.3" width="12.2" height="24.65" shape-rendering="crispEdges"/><rect fill="#161616" x="170.8" y="660.3" width="170.8" height="24.65" shape-rendering="crispEdges"/><rect fill="#121212" x="341.6" y="660.3" width="170.8" height="24.65" shape-rendering="crispEdges"/><rect fill="#121212" x="512.4" y="660.3" width="195.2" height="24.65" shape-rendering="crispEdges"/><rect fill="#121212" x="707.6" y="660.3" width="109.8" height="24.65" shape-rendering="crispEdges"/><rect fill="#24422e" x="817.4" y="660.3" width="122" height="24.65" shape-rendering="crispEdges"/><rect fill="#121212" x="939.4" y="660.3" width="12.2" height="24.65" shape-rendering="crispEdges"/><rect fill="#161616" x="951.6" y="660.3" width="122" height="24.65" shape-rendering="crispEdges"/><rect fill="#121212" x="1073.6" y="660.3" width="12.2" height="24.65" shape-rendering="crispEdges"/><rect fill="#161616" x="1085.8" y="660.3" width="122" height="24.65" shape-rendering="crispEdges"/><rect fill="#121212" x="1207.8" y="660.3" width="12.2" height="24.65" shape-rendering="crispEdges"/><rect fill="#121212" x="0" y="684.7" width="12.2" height="24.65" shape-rendering="crispEdges"/><rect fill="#0b3a5f" x="12.2" y="684.7" width="146.4" height="24.65" shape-rendering="crispEdges"/><rect fill="#121212" x="158.6" y="684.7" width="12.2" height="24.65" shape-rendering="crispEdges"/><rect fill="#161616" x="170.8" y="684.7" width="170.8" height="24.65" shape-rendering="crispEdges"/><rect fill="#121212" x="341.6" y="684.7" width="170.8" height="24.65" shape-rendering="crispEdges"/><rect fill="#121212" x="512.4" y="684.7" width="195.2" height="24.65" shape-rendering="crispEdges"/><rect fill="#121212" x="707.6" y="684.7" width="109.8" height="24.65" shape-rendering="crispEdges"/><rect fill="#24422e" x="817.4" y="684.7" width="36.6" height="24.65" shape-rendering="crispEdges"/><rect fill="#101310" x="854" y="684.7" width="48.8" height="24.65" shape-rendering="crispEdges"/><rect fill="#24422e" x="902.8" y="684.7" width="36.6" height="24.65" shape-rendering="crispEdges"/><rect fill="#121212" x="939.4" y="684.7" width="12.2" height="24.65" shape-rendering="crispEdges"/><rect fill="#161616" x="951.6" y="684.7" width="24.4" height="24.65" shape-rendering="crispEdges"/><rect fill="#161616" x="976" y="684.7" width="73.2" height="24.65" shape-rendering="crispEdges"/><rect fill="#161616" x="1049.2" y="684.7" width="24.4" height="24.65" shape-rendering="crispEdges"/><rect fill="#121212" x="1073.6" y="684.7" width="12.2" height="24.65" shape-rendering="crispEdges"/><rect fill="#161616" x="1085.8" y="684.7" width="24.4" height="24.65" shape-rendering="crispEdges"/><rect fill="#161616" x="1110.2" y="684.7" width="73.2" height="24.65" shape-rendering="crispEdges"/><rect fill="#161616" x="1183.4" y="684.7" width="24.4" height="24.65" shape-rendering="crispEdges"/><rect fill="#121212" x="1207.8" y="684.7" width="12.2" height="24.65" shape-rendering="crispEdges"/><rect fill="#121212" x="0" y="709.1" width="12.2" height="24.65" shape-rendering="crispEdges"/><rect fill="#0b3a5f" x="12.2" y="709.1" width="146.4" height="24.65" shape-rendering="crispEdges"/><rect fill="#121212" x="158.6" y="709.1" width="12.2" height="24.65" shape-rendering="crispEdges"/><rect fill="#161616" x="170.8" y="709.1" width="170.8" height="24.65" shape-rendering="crispEdges"/><rect fill="#121212" x="341.6" y="709.1" width="170.8" height="24.65" shape-rendering="crispEdges"/><rect fill="#121212" x="512.4" y="709.1" width="195.2" height="24.65" shape-rendering="crispEdges"/><rect fill="#121212" x="707.6" y="709.1" width="109.8" height="24.65" shape-rendering="crispEdges"/><rect fill="#24422e" x="817.4" y="709.1" width="122" height="24.65" shape-rendering="crispEdges"/><rect fill="#121212" x="939.4" y="709.1" width="12.2" height="24.65" shape-rendering="crispEdges"/><rect fill="#161616" x="951.6" y="709.1" width="122" height="24.65" shape-rendering="crispEdges"/><rect fill="#121212" x="1073.6" y="709.1" width="12.2" height="24.65" shape-rendering="crispEdges"/><rect fill="#161616" x="1085.8" y="709.1" width="122" height="24.65" shape-rendering="crispEdges"/><rect fill="#121212" x="1207.8" y="709.1" width="12.2" height="24.65" shape-rendering="crispEdges"/>
    <g class="terminal-2053868193-matrix">
    <text class="terminal-2053868193-r2" x="12.2" y="20" textLength="12.2" clip-path="url(#terminal-2053868193-line-0)">⭘</text><text class="terminal-2053868193-r2" x="341.6" y="20" textLength="500.2" clip-path="url(#terminal-2053868193-line-0)">Amenity&#160;v0.1.2&#160;—&#160;tmpuus8353k_amenity_demo</text><text class="terminal-2053868193-r3" x="1220" y="20" textLength="12.2" clip-path="url(#terminal-2053868193-line-0)">
</text><text class="terminal-2053868193-r4" x="61" y="44.4" textLength="170.8" clip-path="url(#terminal-2053868193-line-1)">&#160;Category&#160;&#160;&#160;&#160;&#160;</text><text class="terminal-2053868193-r4" x="231.8" y="44.4" textLength="73.2" clip-path="url(#terminal-2053868193-line-1)">&#160;File&#160;</text><text class="terminal-2053868193-r3" x="1220" y="44.4" textLength="12.2" clip-path="url(#terminal-2053868193-line-1)">
</text><text class="terminal-2053868193-r3" x="1220" y="68.8" textLength="12.2" clip-path="url(#terminal-2053868193-line-2)">
</text><text class="terminal-2053868193-r3" x="1220" y="93.2" textLength="12.2" clip-path="url(#terminal-2053868193-line-3)">
</text><text class="terminal-2053868193-r5" x="244" y="117.6" textLength="12.2" clip-path="url(#terminal-2053868193-line-4)">█</text><text class="terminal-2053868193-r5" x="256.2" y="117.6" textLength="707.6" clip-path="url(#terminal-2053868193-line-4)">▀▀▀▀▀▀▀▀▀▀▀▀▀▀▀▀▀▀▀▀▀▀▀▀▀▀▀▀▀▀▀▀▀▀▀▀▀▀▀▀▀▀▀▀▀▀▀▀▀▀▀▀▀▀▀▀▀▀</text><text class="terminal-2053868193-r5" x="963.8" y="117.6" textLength="12.2" clip-path="url(#terminal-2053868193-line-4)">█</text><text class="terminal-2053868193-r3" x="1220" y="117.6" textLength="12.2" clip-path="url(#terminal-2053868193-line-4)">
</text><text class="terminal-2053868193-r5" x="244" y="142" textLength="12.2" clip-path="url(#terminal-2053868193-line-5)">█</text><text class="terminal-2053868193-r5" x="963.8" y="142" textLength="12.2" clip-path="url(#terminal-2053868193-line-5)">█</text><text class="terminal-2053868193-r3" x="1220" y="142" textLength="12.2" clip-path="url(#terminal-2053868193-line-5)">
</text><text class="terminal-2053868193-r5" x="244" y="166.4" textLength="12.2" clip-path="url(#terminal-2053868193-line-6)">█</text><text class="terminal-2053868193-r1" x="280.6" y="166.4" textLength="85.4" clip-path="url(#terminal-2053868193-line-6)">✔&#160;Done!</text><text class="terminal-2053868193-r5" x="963.8" y="166.4" textLength="12.2" clip-path="url(#terminal-2053868193-line-6)">█</text><text class="terminal-2053868193-r3" x="1220" y="166.4" textLength="12.2" clip-path="url(#terminal-2053868193-line-6)">
</text><text class="terminal-2053868193-r5" x="244" y="190.8" textLength="12.2" clip-path="url(#terminal-2053868193-line-7)">█</text><text class="terminal-2053868193-r1" x="280.6" y="190.8" textLength="207.4" clip-path="url(#terminal-2053868193-line-7)">&#160;&#160;archive:&#160;1&#160;file</text><text class="terminal-2053868193-r5" x="963.8" y="190.8" textLength="12.2" clip-path="url(#terminal-2053868193-line-7)">█</text><text class="terminal-2053868193-r3" x="1220" y="190.8" textLength="12.2" clip-path="url(#terminal-2053868193-line-7)">
</text><text class="terminal-2053868193-r5" x="244" y="215.2" textLength="12.2" clip-path="url(#terminal-2053868193-line-8)">█</text><text class="terminal-2053868193-r1" x="280.6" y="215.2" textLength="183" clip-path="url(#terminal-2053868193-line-8)">&#160;&#160;code:&#160;3&#160;files</text><text class="terminal-2053868193-r5" x="963.8" y="215.2" textLength="12.2" clip-path="url(#terminal-2053868193-line-8)">█</text><text class="terminal-2053868193-r3" x="1220" y="215.2" textLength="12.2" clip-path="url(#terminal-2053868193-line-8)">
</text><text class="terminal-2053868193-r5" x="244" y="239.6" textLength="12.2" clip-path="url(#terminal-2053868193-line-9)">█</text><text class="terminal-2053868193-r1" x="280.6" y="239.6" textLength="170.8" clip-path="url(#terminal-2053868193-line-9)">&#160;&#160;html:&#160;1&#160;file</text><text class="terminal-2053868193-r5" x="963.8" y="239.6" textLength="12.2" clip-path="url(#terminal-2053868193-line-9)">█</text><text class="terminal-2053868193-r3" x="1220" y="239.6" textLength="12.2" clip-path="url(#terminal-2053868193-line-9)">
</text><text class="terminal-2053868193-r5" x="244" y="264" textLength="12.2" clip-path="url(#terminal-2053868193-line-10)">█</text><text class="terminal-2053868193-r1" x="280.6" y="264" textLength="170.8" clip-path="url(#terminal-2053868193-line-10)">&#160;&#160;img:&#160;2&#160;files</text><text class="terminal-2053868193-r5" x="963.8" y="264" textLength="12.2" clip-path="url(#terminal-2053868193-line-10)">█</text><text class="terminal-2053868193-r3" x="1220" y="264" textLength="12.2" clip-path="url(#terminal-2053868193-line-10)">
</text><text class="terminal-2053868193-r5" x="244" y="288.4" textLength="12.2" clip-path="url(#terminal-2053868193-line-11)">█</text><text class="terminal-2053868193-r1" x="280.6" y="288.4" textLength="170.8" clip-path="url(#terminal-2053868193-line-11)">&#160;&#160;json:&#160;1&#160;file</text><text class="terminal-2053868193-r5" x="963.8" y="288.4" textLength="12.2" clip-path="url(#terminal-2053868193-line-11)">█</text><text class="terminal-2053868193-r3" x="1220" y="288.4" textLength="12.2" clip-path="url(#terminal-2053868193-line-11)">
</text><text class="terminal-2053868193-r5" x="244" y="312.8" textLength="12.2" clip-path="url(#terminal-2053868193-line-12)">█</text><text class="terminal-2053868193-r1" x="280.6" y="312.8" textLength="183" clip-path="url(#terminal-2053868193-line-12)">&#160;&#160;music:&#160;1&#160;file</text><text class="terminal-2053868193-r5" x="963.8" y="312.8" textLength="12.2" clip-path="url(#terminal-2053868193-line-12)">█</text><text class="terminal-2053868193-r3" x="1220" y="312.8" textLength="12.2" clip-path="url(#terminal-2053868193-line-12)">
</text><text class="terminal-2053868193-r5" x="244" y="337.2" textLength="12.2" clip-path="url(#terminal-2053868193-line-13)">█</text><text class="terminal-2053868193-r1" x="280.6" y="337.2" textLength="183" clip-path="url(#terminal-2053868193-line-13)">&#160;&#160;other:&#160;1&#160;file</text><text class="terminal-2053868193-r5" x="963.8" y="337.2" textLength="12.2" clip-path="url(#terminal-2053868193-line-13)">█</text><text class="terminal-2053868193-r3" x="1220" y="337.2" textLength="12.2" clip-path="url(#terminal-2053868193-line-13)">
</text><text class="terminal-2053868193-r5" x="244" y="361.6" textLength="12.2" clip-path="url(#terminal-2053868193-line-14)">█</text><text class="terminal-2053868193-r1" x="280.6" y="361.6" textLength="170.8" clip-path="url(#terminal-2053868193-line-14)">&#160;&#160;pdf:&#160;2&#160;files</text><text class="terminal-2053868193-r5" x="963.8" y="361.6" textLength="12.2" clip-path="url(#terminal-2053868193-line-14)">█</text><text class="terminal-2053868193-r3" x="1220" y="361.6" textLength="12.2" clip-path="url(#terminal-2053868193-line-14)">
</text><text class="terminal-2053868193-r5" x="244" y="386" textLength="12.2" clip-path="url(#terminal-2053868193-line-15)">█</text><text class="terminal-2053868193-r1" x="280.6" y="386" textLength="183" clip-path="url(#terminal-2053868193-line-15)">&#160;&#160;text:&#160;4&#160;files</text><text class="terminal-2053868193-r5" x="963.8" y="386" textLength="12.2" clip-path="url(#terminal-2053868193-line-15)">█</text><text class="terminal-2053868193-r3" x="1220" y="386" textLength="12.2" clip-path="url(#terminal-2053868193-line-15)">
</text><text class="terminal-2053868193-r5" x="244" y="410.4" textLength="12.2" clip-path="url(#terminal-2053868193-line-16)">█</text><text class="terminal-2053868193-r1" x="280.6" y="410.4" textLength="183" clip-path="url(#terminal-2053868193-line-16)">&#160;&#160;video:&#160;1&#160;file</text><text class="terminal-2053868193-r5" x="963.8" y="410.4" textLength="12.2" clip-path="url(#terminal-2053868193-line-16)">█</text><text class="terminal-2053868193-r3" x="1220" y="410.4" textLength="12.2" clip-path="url(#terminal-2053868193-line-16)">
</text><text class="terminal-2053868193-r5" x="244" y="434.8" textLength="12.2" clip-path="url(#terminal-2053868193-line-17)">█</text><text class="terminal-2053868193-r1" x="280.6" y="434.8" textLength="170.8" clip-path="url(#terminal-2053868193-line-17)">&#160;&#160;word:&#160;1&#160;file</text><text class="terminal-2053868193-r5" x="963.8" y="434.8" textLength="12.2" clip-path="url(#terminal-2053868193-line-17)">█</text><text class="terminal-2053868193-r3" x="1220" y="434.8" textLength="12.2" clip-path="url(#terminal-2053868193-line-17)">
</text><text class="terminal-2053868193-r5" x="244" y="459.2" textLength="12.2" clip-path="url(#terminal-2053868193-line-18)">█</text><text class="terminal-2053868193-r1" x="280.6" y="459.2" textLength="170.8" clip-path="url(#terminal-2053868193-line-18)">&#160;&#160;xls:&#160;2&#160;files</text><text class="terminal-2053868193-r5" x="963.8" y="459.2" textLength="12.2" clip-path="url(#terminal-2053868193-line-18)">█</text><text class="terminal-2053868193-r3" x="1220" y="459.2" textLength="12.2" clip-path="url(#terminal-2053868193-line-18)">
</text><text class="terminal-2053868193-r5" x="244" y="483.6" textLength="12.2" clip-path="url(#terminal-2053868193-line-19)">█</text><text class="terminal-2053868193-r5" x="963.8" y="483.6" textLength="12.2" clip-path="url(#terminal-2053868193-line-19)">█</text><text class="terminal-2053868193-r3" x="1220" y="483.6" textLength="12.2" clip-path="url(#terminal-2053868193-line-19)">
</text><text class="terminal-2053868193-r5" x="244" y="508" textLength="12.2" clip-path="url(#terminal-2053868193-line-20)">█</text><text class="terminal-2053868193-r6" x="280.6" y="508" textLength="658.8" clip-path="url(#terminal-2053868193-line-20)">▔▔▔▔▔▔▔▔▔▔▔▔▔▔▔▔▔▔▔▔▔▔▔▔▔▔▔▔▔▔▔▔▔▔▔▔▔▔▔▔▔▔▔▔▔▔▔▔▔▔▔▔▔▔</text><text class="terminal-2053868193-r5" x="963.8" y="508" textLength="12.2" clip-path="url(#terminal-2053868193-line-20)">█</text><text class="terminal-2053868193-r3" x="1220" y="508" textLength="12.2" clip-path="url(#terminal-2053868193-line-20)">
</text><text class="terminal-2053868193-r5" x="244" y="532.4" textLength="12.2" clip-path="url(#terminal-2053868193-line-21)">█</text><text class="terminal-2053868193-r7" x="585.6" y="532.4" textLength="48.8" clip-path="url(#terminal-2053868193-line-21)">&#160;OK&#160;</text><text class="terminal-2053868193-r5" x="963.8" y="532.4" textLength="12.2" clip-path="url(#terminal-2053868193-line-21)">█</text><text class="terminal-2053868193-r3" x="1220" y="532.4" textLength="12.2" clip-path="url(#terminal-2053868193-line-21)">
</text><text class="terminal-2053868193-r5" x="244" y="556.8" textLength="12.2" clip-path="url(#terminal-2053868193-line-22)">█</text><text class="terminal-2053868193-r8" x="280.6" y="556.8" textLength="658.8" clip-path="url(#terminal-2053868193-line-22)">▁▁▁▁▁▁▁▁▁▁▁▁▁▁▁▁▁▁▁▁▁▁▁▁▁▁▁▁▁▁▁▁▁▁▁▁▁▁▁▁▁▁▁▁▁▁▁▁▁▁▁▁▁▁</text><text class="terminal-2053868193-r5" x="963.8" y="556.8" textLength="12.2" clip-path="url(#terminal-2053868193-line-22)">█</text><text class="terminal-2053868193-r3" x="1220" y="556.8" textLength="12.2" clip-path="url(#terminal-2053868193-line-22)">
</text><text class="terminal-2053868193-r5" x="244" y="581.2" textLength="12.2" clip-path="url(#terminal-2053868193-line-23)">█</text><text class="terminal-2053868193-r5" x="963.8" y="581.2" textLength="12.2" clip-path="url(#terminal-2053868193-line-23)">█</text><text class="terminal-2053868193-r3" x="1220" y="581.2" textLength="12.2" clip-path="url(#terminal-2053868193-line-23)">
</text><text class="terminal-2053868193-r5" x="244" y="605.6" textLength="12.2" clip-path="url(#terminal-2053868193-line-24)">█</text><text class="terminal-2053868193-r5" x="256.2" y="605.6" textLength="707.6" clip-path="url(#terminal-2053868193-line-24)">▄▄▄▄▄▄▄▄▄▄▄▄▄▄▄▄▄▄▄▄▄▄▄▄▄▄▄▄▄▄▄▄▄▄▄▄▄▄▄▄▄▄▄▄▄▄▄▄▄▄▄▄▄▄▄▄▄▄</text><text class="terminal-2053868193-r5" x="963.8" y="605.6" textLength="12.2" clip-path="url(#terminal-2053868193-line-24)">█</text><text class="terminal-2053868193-r3" x="1220" y="605.6" textLength="12.2" clip-path="url(#terminal-2053868193-line-24)">
</text><text class="terminal-2053868193-r3" x="1220" y="630" textLength="12.2" clip-path="url(#terminal-2053868193-line-25)">
</text><text class="terminal-2053868193-r3" x="1220" y="654.4" textLength="12.2" clip-path="url(#terminal-2053868193-line-26)">
</text><text class="terminal-2053868193-r9" x="12.2" y="678.8" textLength="146.4" clip-path="url(#terminal-2053868193-line-27)">▔▔▔▔▔▔▔▔▔▔▔▔</text><text class="terminal-2053868193-r10" x="170.8" y="678.8" textLength="170.8" clip-path="url(#terminal-2053868193-line-27)">▔▔▔▔▔▔▔▔▔▔▔▔▔▔</text><text class="terminal-2053868193-r11" x="817.4" y="678.8" textLength="122" clip-path="url(#terminal-2053868193-line-27)">▔▔▔▔▔▔▔▔▔▔</text><text class="terminal-2053868193-r10" x="951.6" y="678.8" textLength="122" clip-path="url(#terminal-2053868193-line-27)">▔▔▔▔▔▔▔▔▔▔</text><text class="terminal-2053868193-r10" x="1085.8" y="678.8" textLength="122" clip-path="url(#terminal-2053868193-line-27)">▔▔▔▔▔▔▔▔▔▔</text><text class="terminal-2053868193-r3" x="1220" y="678.8" textLength="12.2" clip-path="url(#terminal-2053868193-line-27)">
</text><text class="terminal-2053868193-r12" x="12.2" y="703.2" textLength="146.4" clip-path="url(#terminal-2053868193-line-28)">&#160;Select&#160;All&#160;</text><text class="terminal-2053868193-r4" x="170.8" y="703.2" textLength="170.8" clip-path="url(#terminal-2053868193-line-28)">&#160;Deselect&#160;All&#160;</text><text class="terminal-2053868193-r2" x="512.4" y="703.2" textLength="195.2" clip-path="url(#terminal-2053868193-line-28)">0&#160;files&#160;selected</text><text class="terminal-2053868193-r13" x="854" y="703.2" textLength="48.8" clip-path="url(#terminal-2053868193-line-28)">&#160;GO&#160;</text><text class="terminal-2053868193-r4" x="976" y="703.2" textLength="73.2" clip-path="url(#terminal-2053868193-line-28)">&#160;Help&#160;</text><text class="terminal-2053868193-r4" x="1110.2" y="703.2" textLength="73.2" clip-path="url(#terminal-2053868193-line-28)">&#160;Exit&#160;</text><text class="terminal-2053868193-r3" x="1220" y="703.2" textLength="12.2" clip-path="url(#terminal-2053868193-line-28)">
</text><text class="terminal-2053868193-r14" x="12.2" y="727.6" textLength="146.4" clip-path="url(#terminal-2053868193-line-29)">▁▁▁▁▁▁▁▁▁▁▁▁</text><text class="terminal-2053868193-r15" x="170.8" y="727.6" textLength="170.8" clip-path="url(#terminal-2053868193-line-29)">▁▁▁▁▁▁▁▁▁▁▁▁▁▁</text><text class="terminal-2053868193-r16" x="817.4" y="727.6" textLength="122" clip-path="url(#terminal-2053868193-line-29)">▁▁▁▁▁▁▁▁▁▁</text><text class="terminal-2053868193-r15" x="951.6" y="727.6" textLength="122" clip-path="url(#terminal-2053868193-line-29)">▁▁▁▁▁▁▁▁▁▁</text><text class="terminal-2053868193-r15" x="1085.8" y="727.6" textLength="122" clip-path="url(#terminal-2053868193-line-29)">▁▁▁▁▁▁▁▁▁▁</text>
    </g>
    </g>
</svg>
